<svg height="1678" width="720" xmlns="http://www.w3.org/2000/svg">
<rect height="1678" fill="#555" width="720"></rect>
<text fill="#7f7" font-family="Courier New" font-size="12" xml:space="preserve">
<tspan x="10" y="26">└─┬ lerna@2.0.0-beta.38 </tspan>
<tspan x="10" y="42">  ├── async@1.5.2 </tspan>
<tspan x="10" y="58">  ├─┬ chalk@1.1.3 </tspan>
<tspan x="10" y="74">  │ ├── ansi-styles@2.2.1 </tspan>
<tspan x="10" y="90">  │ ├── escape-string-regexp@1.0.5 </tspan>
<tspan x="10" y="106">  │ ├─┬ has-ansi@2.0.0 </tspan>
<tspan x="10" y="122">  │ │ └── ansi-regex@2.1.1 </tspan>
<tspan x="10" y="138">  │ ├── strip-ansi@3.0.1 </tspan>
<tspan x="10" y="154">  │ └── supports-color@2.0.0 </tspan>
<tspan x="10" y="170">  ├─┬ cmd-shim@2.0.2 </tspan>
<tspan x="10" y="186">  │ └── graceful-fs@4.1.11 </tspan>
<tspan x="10" y="202">  ├─┬ columnify@1.5.4 </tspan>
<tspan x="10" y="218">  │ └─┬ wcwidth@1.0.1 </tspan>
<tspan x="10" y="234">  │   └─┬ defaults@1.0.3 </tspan>
<tspan x="10" y="250">  │     └── clone@1.0.2 </tspan>
<tspan x="10" y="266">  ├── command-join@2.0.0 </tspan>
<tspan x="10" y="282">  ├─┬ cross-spawn@4.0.2 </tspan>
<tspan x="10" y="298">  │ ├─┬ lru-cache@4.0.2 </tspan>
<tspan x="10" y="314">  │ │ ├── pseudomap@1.0.2 </tspan>
<tspan x="10" y="330">  │ │ └── yallist@2.1.2 </tspan>
<tspan x="10" y="346">  │ └─┬ which@1.2.14 </tspan>
<tspan x="10" y="362">  │   └── isexe@2.0.0 </tspan>
<tspan x="10" y="378">  ├─┬ glob@7.1.1 </tspan>
<tspan x="10" y="394">  │ ├── fs.realpath@1.0.0 </tspan>
<tspan x="10" y="410">  │ ├─┬ inflight@1.0.6 </tspan>
<tspan x="10" y="426">  │ │ └── wrappy@1.0.2 </tspan>
<tspan x="10" y="442">  │ ├── inherits@2.0.3 </tspan>
<tspan x="10" y="458">  │ ├── once@1.4.0 </tspan>
<tspan x="10" y="474">  │ └── path-is-absolute@1.0.1 </tspan>
<tspan x="10" y="490">  ├─┬ inquirer@3.0.6 </tspan>
<tspan x="10" y="506">  │ ├── ansi-escapes@1.4.0 </tspan>
<tspan x="10" y="522">  │ ├─┬ cli-cursor@2.1.0 </tspan>
<tspan x="10" y="538">  │ │ └─┬ restore-cursor@2.0.0 </tspan>
<tspan x="10" y="554">  │ │   └─┬ onetime@2.0.1 </tspan>
<tspan x="10" y="570">  │ │     └── mimic-fn@1.1.0 </tspan>
<tspan x="10" y="586">  │ ├── cli-width@2.1.0 </tspan>
<tspan x="10" y="602">  │ ├─┬ external-editor@2.0.1 </tspan>
<tspan x="10" y="618">  │ │ └─┬ tmp@0.0.31 </tspan>
<tspan x="10" y="634">  │ │   └── os-tmpdir@1.0.2 </tspan>
<tspan x="10" y="650">  │ ├── figures@2.0.0 </tspan>
<tspan x="10" y="666">  │ ├── mute-stream@0.0.7 </tspan>
<tspan x="10" y="682">  │ ├─┬ run-async@2.3.0 </tspan>
<tspan x="10" y="698">  │ │ └── is-promise@2.1.0 </tspan>
<tspan x="10" y="714">  │ ├── rx@4.1.0 </tspan>
<tspan x="10" y="730">  │ ├─┬ string-width@2.0.0 </tspan>
<tspan x="10" y="746">  │ │ └── is-fullwidth-code-point@2.0.0 </tspan>
<tspan x="10" y="762">  │ └── through@2.3.8 </tspan>
<tspan x="10" y="778">  ├── lodash@4.17.4 </tspan>
<tspan x="10" y="794">  ├─┬ meow@3.7.0 </tspan>
<tspan x="10" y="810">  │ ├─┬ camelcase-keys@2.1.0 </tspan>
<tspan x="10" y="826">  │ │ └── camelcase@2.1.1 </tspan>
<tspan x="10" y="842">  │ ├── decamelize@1.2.0 </tspan>
<tspan x="10" y="858">  │ ├─┬ loud-rejection@1.6.0 </tspan>
<tspan x="10" y="874">  │ │ └─┬ currently-unhandled@0.4.1 </tspan>
<tspan x="10" y="890">  │ │   └── array-find-index@1.0.2 </tspan>
<tspan x="10" y="906">  │ ├── map-obj@1.0.1 </tspan>
<tspan x="10" y="922">  │ ├── minimist@1.2.0 </tspan>
<tspan x="10" y="938">  │ ├─┬ normalize-package-data@2.3.6 </tspan>
<tspan x="10" y="954">  │ │ ├── hosted-git-info@2.4.1 </tspan>
<tspan x="10" y="970">  │ │ ├─┬ is-builtin-module@1.0.0 </tspan>
<tspan x="10" y="986">  │ │ │ └── builtin-modules@1.1.1 </tspan>
<tspan x="10" y="1002">  │ │ └─┬ validate-npm-package-license@3.0.1 </tspan>
<tspan x="10" y="1018">  │ │   ├─┬ spdx-correct@1.0.2 </tspan>
<tspan x="10" y="1034">  │ │   │ └── spdx-license-ids@1.2.2 </tspan>
<tspan x="10" y="1050">  │ │   └── spdx-expression-parse@1.0.4 </tspan>
<tspan x="10" y="1066">  │ ├── object-assign@4.1.1 </tspan>
<tspan x="10" y="1082">  │ ├─┬ read-pkg-up@1.0.1 </tspan>
<tspan x="10" y="1098">  │ │ ├── find-up@1.1.2 </tspan>
<tspan x="10" y="1114">  │ │ └─┬ read-pkg@1.1.0 </tspan>
<tspan x="10" y="1130">  │ │   ├─┬ load-json-file@1.1.0 </tspan>
<tspan x="10" y="1146">  │ │   │ ├─┬ parse-json@2.2.0 </tspan>
<tspan x="10" y="1162">  │ │   │ │ └─┬ error-ex@1.3.1 </tspan>
<tspan x="10" y="1178">  │ │   │ │   └── is-arrayish@0.2.1 </tspan>
<tspan x="10" y="1194">  │ │   │ ├── pify@2.3.0 </tspan>
<tspan x="10" y="1210">  │ │   │ └─┬ strip-bom@2.0.0 </tspan>
<tspan x="10" y="1226">  │ │   │   └── is-utf8@0.2.1 </tspan>
<tspan x="10" y="1242">  │ │   └── path-type@1.1.0 </tspan>
<tspan x="10" y="1258">  │ ├─┬ redent@1.0.0 </tspan>
<tspan x="10" y="1274">  │ │ ├─┬ indent-string@2.1.0 </tspan>
<tspan x="10" y="1290">  │ │ │ └─┬ repeating@2.0.1 </tspan>
<tspan x="10" y="1306">  │ │ │   └─┬ is-finite@1.0.2 </tspan>
<tspan x="10" y="1322">  │ │ │     └── number-is-nan@1.0.1 </tspan>
<tspan x="10" y="1338">  │ │ └─┬ strip-indent@1.0.1 </tspan>
<tspan x="10" y="1354">  │ │   └── get-stdin@4.0.1 </tspan>
<tspan x="10" y="1370">  │ └── trim-newlines@1.0.0 </tspan>
<tspan x="10" y="1386">  ├─┬ minimatch@3.0.3 </tspan>
<tspan x="10" y="1402">  │ └─┬ brace-expansion@1.1.6 </tspan>
<tspan x="10" y="1418">  │   ├── balanced-match@0.4.2 </tspan>
<tspan x="10" y="1434">  │   └── concat-map@0.0.1 </tspan>
<tspan x="10" y="1450">  ├─┬ mkdirp@0.5.1 </tspan>
<tspan x="10" y="1466">  │ └── minimist@0.0.8 </tspan>
<tspan x="10" y="1482">  ├─┬ normalize-path@2.1.1 </tspan>
<tspan x="10" y="1498">  │ └── remove-trailing-separator@1.0.1 </tspan>
<tspan x="10" y="1514">  ├─┬ object-assign-sorted@2.0.1 </tspan>
<tspan x="10" y="1530">  │ └── sorted-object@2.0.1 </tspan>
<tspan x="10" y="1546">  ├─┬ path-exists@2.1.0 </tspan>
<tspan x="10" y="1562">  │ └─┬ pinkie-promise@2.0.1 </tspan>
<tspan x="10" y="1578">  │   └── pinkie@2.0.4 </tspan>
<tspan x="10" y="1594">  ├── progress@1.1.8 </tspan>
<tspan x="10" y="1610">  ├── read-cmd-shim@1.0.1 </tspan>
<tspan x="10" y="1626">  ├── rimraf@2.6.1 </tspan>
<tspan x="10" y="1642">  ├── semver@5.3.0 </tspan>
<tspan x="10" y="1658">  └── signal-exit@3.0.2</tspan>
</text>
</svg>
